<mxfile host="app.diagrams.net" agent="Mozilla/5.0 (Windows NT 10.0; Win64; x64) AppleWebKit/537.36 (KHTML, like Gecko) Chrome/127.0.0.0 Safari/537.36" version="24.7.7">
  <diagram name="Page-1" id="ZupE8bOi7O_1OFFk070X">
    <mxGraphModel dx="794" dy="458" grid="1" gridSize="10" guides="1" tooltips="1" connect="1" arrows="1" fold="1" page="1" pageScale="1" pageWidth="850" pageHeight="1100" math="0" shadow="0">
      <root>
        <mxCell id="0" />
        <mxCell id="1" parent="0" />
        <mxCell id="3OFPeEvSLnSkzeKa08A4-1" value="int i = 3" style="whiteSpace=wrap;html=1;aspect=fixed;fontSize=20;fontStyle=1" vertex="1" parent="1">
          <mxGeometry x="10" y="240" width="80" height="80" as="geometry" />
        </mxCell>
        <mxCell id="3OFPeEvSLnSkzeKa08A4-40" style="edgeStyle=orthogonalEdgeStyle;rounded=0;orthogonalLoop=1;jettySize=auto;html=1;entryX=0;entryY=0;entryDx=0;entryDy=0;" edge="1" parent="1" source="3OFPeEvSLnSkzeKa08A4-3" target="3OFPeEvSLnSkzeKa08A4-4">
          <mxGeometry relative="1" as="geometry" />
        </mxCell>
        <mxCell id="3OFPeEvSLnSkzeKa08A4-3" value="p" style="whiteSpace=wrap;html=1;aspect=fixed;fontSize=20;fontStyle=1" vertex="1" parent="1">
          <mxGeometry x="40" y="160" width="40" height="40" as="geometry" />
        </mxCell>
        <mxCell id="3OFPeEvSLnSkzeKa08A4-4" value="&#39;c&#39;" style="rounded=0;whiteSpace=wrap;html=1;fontSize=20;fontStyle=1" vertex="1" parent="1">
          <mxGeometry x="160" y="160" width="80" height="40" as="geometry" />
        </mxCell>
        <mxCell id="3OFPeEvSLnSkzeKa08A4-6" value="next" style="whiteSpace=wrap;html=1;aspect=fixed;fontSize=13;fontStyle=1" vertex="1" parent="1">
          <mxGeometry x="160" y="200" width="40" height="40" as="geometry" />
        </mxCell>
        <mxCell id="3OFPeEvSLnSkzeKa08A4-7" style="edgeStyle=orthogonalEdgeStyle;rounded=0;orthogonalLoop=1;jettySize=auto;html=1;" edge="1" parent="1" source="3OFPeEvSLnSkzeKa08A4-8">
          <mxGeometry relative="1" as="geometry">
            <mxPoint x="280" y="260" as="targetPoint" />
          </mxGeometry>
        </mxCell>
        <mxCell id="3OFPeEvSLnSkzeKa08A4-39" style="edgeStyle=orthogonalEdgeStyle;rounded=0;orthogonalLoop=1;jettySize=auto;html=1;entryX=0;entryY=0;entryDx=0;entryDy=0;" edge="1" parent="1" source="3OFPeEvSLnSkzeKa08A4-8" target="3OFPeEvSLnSkzeKa08A4-9">
          <mxGeometry relative="1" as="geometry" />
        </mxCell>
        <mxCell id="3OFPeEvSLnSkzeKa08A4-8" value="" style="whiteSpace=wrap;html=1;aspect=fixed;fontSize=13;fontStyle=1" vertex="1" parent="1">
          <mxGeometry x="200" y="200" width="40" height="40" as="geometry" />
        </mxCell>
        <mxCell id="3OFPeEvSLnSkzeKa08A4-9" value="&#39;e&#39;" style="rounded=0;whiteSpace=wrap;html=1;fontSize=20;fontStyle=1" vertex="1" parent="1">
          <mxGeometry x="160" y="280" width="80" height="40" as="geometry" />
        </mxCell>
        <mxCell id="3OFPeEvSLnSkzeKa08A4-11" value="next" style="whiteSpace=wrap;html=1;aspect=fixed;fontSize=13;fontStyle=1" vertex="1" parent="1">
          <mxGeometry x="160" y="320" width="40" height="40" as="geometry" />
        </mxCell>
        <mxCell id="3OFPeEvSLnSkzeKa08A4-12" style="edgeStyle=orthogonalEdgeStyle;rounded=0;orthogonalLoop=1;jettySize=auto;html=1;" edge="1" parent="1" source="3OFPeEvSLnSkzeKa08A4-13">
          <mxGeometry relative="1" as="geometry">
            <mxPoint x="280" y="400" as="targetPoint" />
          </mxGeometry>
        </mxCell>
        <mxCell id="3OFPeEvSLnSkzeKa08A4-13" value="" style="whiteSpace=wrap;html=1;aspect=fixed;fontSize=13;fontStyle=1" vertex="1" parent="1">
          <mxGeometry x="200" y="320" width="40" height="40" as="geometry" />
        </mxCell>
        <mxCell id="3OFPeEvSLnSkzeKa08A4-30" value="" style="endArrow=none;html=1;rounded=0;" edge="1" parent="1">
          <mxGeometry width="50" height="50" relative="1" as="geometry">
            <mxPoint x="250" y="260" as="sourcePoint" />
            <mxPoint x="310" y="260" as="targetPoint" />
          </mxGeometry>
        </mxCell>
        <mxCell id="3OFPeEvSLnSkzeKa08A4-31" value="" style="endArrow=none;html=1;rounded=0;" edge="1" parent="1">
          <mxGeometry width="50" height="50" relative="1" as="geometry">
            <mxPoint x="250" y="400" as="sourcePoint" />
            <mxPoint x="310" y="400" as="targetPoint" />
          </mxGeometry>
        </mxCell>
      </root>
    </mxGraphModel>
  </diagram>
</mxfile>
